<svg xmlns="http://www.w3.org/2000/svg" xmlns:xlink="http://www.w3.org/1999/xlink" width="500" zoomAndPan="magnify" viewBox="0 0 375 374.999991" height="500" preserveAspectRatio="xMidYMid meet" version="1.0"><defs><clipPath id="a31e566277"><path d="M 0 0.75 L 375 0.75 L 375 188.25 L 0 188.25 Z M 0 0.75 " clip-rule="nonzero"/></clipPath><clipPath id="c69f9d4da6"><path d="M 39 33.097656 L 181 33.097656 L 181 175 L 39 175 Z M 39 33.097656 " clip-rule="nonzero"/></clipPath><clipPath id="75ef4206e7"><path d="M 194 202 L 336 202 L 336 343.597656 L 194 343.597656 Z M 194 202 " clip-rule="nonzero"/></clipPath></defs><rect x="-37.5" width="450" fill="#ffffff" y="-37.499999" height="449.999989" fill-opacity="1"/><rect x="-37.5" width="450" fill="#ffcc00" y="-37.499999" height="449.999989" fill-opacity="1"/><g clip-path="url(#a31e566277)"><path fill="#0066cc" d="M 0 0.75 L 375 0.75 L 375 188.25 L 0 188.25 Z M 0 0.75 " fill-opacity="1" fill-rule="nonzero"/></g><path fill="#ffffff" d="M 333.554688 176.191406 C 330.945312 173.582031 326.148438 173.582031 323.539062 176.191406 C 322.261719 177.53125 321.492188 179.363281 321.492188 181.199219 C 321.492188 183.03125 322.261719 184.863281 323.539062 186.203125 C 324.878906 187.472656 326.710938 188.25 328.546875 188.25 C 330.378906 188.25 332.214844 187.472656 333.554688 186.203125 C 334.824219 184.863281 335.597656 183.03125 335.597656 181.199219 C 335.597656 179.363281 334.824219 177.53125 333.554688 176.191406 Z M 333.554688 176.191406 " fill-opacity="1" fill-rule="nonzero"/><path fill="#ffffff" d="M 228.402344 75.414062 C 224.453125 75.414062 221.351562 78.585938 221.351562 82.464844 C 221.351562 86.34375 224.453125 89.515625 228.402344 89.515625 C 232.28125 89.515625 235.457031 86.34375 235.457031 82.464844 C 235.457031 78.585938 232.28125 75.414062 228.402344 75.414062 Z M 228.402344 75.414062 " fill-opacity="1" fill-rule="nonzero"/><path fill="#ffffff" d="M 281.710938 75.414062 C 277.832031 75.414062 274.660156 78.585938 274.660156 82.464844 C 274.660156 86.34375 277.839844 89.515625 281.710938 89.515625 C 285.667969 89.515625 288.761719 86.34375 288.761719 82.464844 C 288.765625 78.585938 285.667969 75.414062 281.710938 75.414062 Z M 281.710938 75.414062 " fill-opacity="1" fill-rule="nonzero"/><path fill="#ffffff" d="M 262.113281 82.464844 C 262.113281 82.929688 262.066406 83.386719 261.976562 83.839844 C 261.886719 84.296875 261.753906 84.738281 261.574219 85.164062 C 261.398438 85.59375 261.183594 86 260.925781 86.382812 C 260.667969 86.769531 260.375 87.125 260.046875 87.453125 C 259.71875 87.78125 259.363281 88.070312 258.980469 88.328125 C 258.59375 88.585938 258.1875 88.804688 257.757812 88.980469 C 257.332031 89.15625 256.890625 89.292969 256.4375 89.382812 C 255.984375 89.472656 255.523438 89.515625 255.0625 89.515625 C 254.597656 89.515625 254.140625 89.472656 253.683594 89.382812 C 253.230469 89.292969 252.789062 89.15625 252.363281 88.980469 C 251.933594 88.804688 251.527344 88.585938 251.144531 88.328125 C 250.757812 88.070312 250.402344 87.78125 250.074219 87.453125 C 249.746094 87.125 249.453125 86.769531 249.199219 86.382812 C 248.941406 86 248.722656 85.59375 248.546875 85.164062 C 248.367188 84.738281 248.234375 84.296875 248.144531 83.839844 C 248.054688 83.386719 248.007812 82.929688 248.007812 82.464844 C 248.007812 82.003906 248.054688 81.542969 248.144531 81.089844 C 248.234375 80.636719 248.367188 80.195312 248.546875 79.765625 C 248.722656 79.339844 248.941406 78.933594 249.195312 78.546875 C 249.453125 78.164062 249.746094 77.804688 250.074219 77.480469 C 250.402344 77.152344 250.757812 76.859375 251.144531 76.601562 C 251.527344 76.34375 251.933594 76.128906 252.363281 75.949219 C 252.789062 75.773438 253.230469 75.640625 253.683594 75.550781 C 254.140625 75.457031 254.597656 75.414062 255.0625 75.414062 C 255.523438 75.414062 255.984375 75.457031 256.4375 75.550781 C 256.890625 75.640625 257.332031 75.773438 257.757812 75.949219 C 258.1875 76.128906 258.59375 76.34375 258.980469 76.601562 C 259.363281 76.859375 259.71875 77.152344 260.046875 77.480469 C 260.375 77.804688 260.667969 78.164062 260.925781 78.546875 C 261.183594 78.933594 261.398438 79.339844 261.574219 79.765625 C 261.753906 80.195312 261.886719 80.636719 261.976562 81.089844 C 262.066406 81.542969 262.113281 82.003906 262.113281 82.464844 Z M 262.113281 82.464844 " fill-opacity="1" fill-rule="nonzero"/><path fill="#ffffff" d="M 335.597656 127.8125 C 335.597656 128.273438 335.550781 128.734375 335.460938 129.1875 C 335.371094 129.640625 335.238281 130.082031 335.0625 130.511719 C 334.882812 130.9375 334.667969 131.34375 334.410156 131.730469 C 334.152344 132.113281 333.859375 132.46875 333.53125 132.796875 C 333.203125 133.125 332.847656 133.417969 332.464844 133.675781 C 332.078125 133.933594 331.671875 134.148438 331.246094 134.328125 C 330.816406 134.503906 330.375 134.636719 329.921875 134.726562 C 329.46875 134.816406 329.007812 134.863281 328.546875 134.863281 C 328.082031 134.863281 327.625 134.816406 327.171875 134.726562 C 326.714844 134.636719 326.273438 134.503906 325.847656 134.328125 C 325.417969 134.148438 325.011719 133.933594 324.628906 133.675781 C 324.242188 133.417969 323.886719 133.125 323.558594 132.796875 C 323.230469 132.46875 322.9375 132.113281 322.683594 131.730469 C 322.425781 131.34375 322.207031 130.9375 322.03125 130.511719 C 321.851562 130.082031 321.71875 129.640625 321.628906 129.1875 C 321.539062 128.734375 321.492188 128.273438 321.492188 127.8125 C 321.492188 127.347656 321.539062 126.890625 321.628906 126.433594 C 321.71875 125.980469 321.851562 125.539062 322.03125 125.113281 C 322.207031 124.683594 322.425781 124.277344 322.683594 123.894531 C 322.9375 123.507812 323.230469 123.152344 323.558594 122.824219 C 323.886719 122.496094 324.242188 122.203125 324.628906 121.949219 C 325.011719 121.691406 325.417969 121.472656 325.847656 121.296875 C 326.273438 121.117188 326.714844 120.984375 327.171875 120.894531 C 327.625 120.804688 328.082031 120.757812 328.546875 120.757812 C 329.007812 120.757812 329.46875 120.804688 329.921875 120.894531 C 330.375 120.984375 330.816406 121.117188 331.246094 121.296875 C 331.671875 121.472656 332.078125 121.691406 332.464844 121.949219 C 332.847656 122.203125 333.203125 122.496094 333.53125 122.824219 C 333.859375 123.152344 334.152344 123.507812 334.410156 123.894531 C 334.667969 124.277344 334.882812 124.683594 335.0625 125.113281 C 335.238281 125.539062 335.371094 125.980469 335.460938 126.433594 C 335.550781 126.890625 335.597656 127.347656 335.597656 127.8125 Z M 335.597656 127.8125 " fill-opacity="1" fill-rule="nonzero"/><path fill="#ffffff" d="M 333.617188 98.96875 C 332.285156 95.300781 328.257812 93.394531 324.589844 94.664062 C 320.921875 95.9375 319.019531 99.953125 320.292969 103.621094 C 321.351562 106.585938 324.023438 108.347656 326.996094 108.347656 C 327.761719 108.347656 328.546875 108.207031 329.3125 107.996094 C 332.988281 106.65625 334.886719 102.636719 333.617188 98.96875 Z M 333.617188 98.96875 " fill-opacity="1" fill-rule="nonzero"/><path fill="#ffffff" d="M 310.28125 76.824219 C 306.542969 75.765625 302.664062 77.878906 301.535156 81.617188 C 300.476562 85.355469 302.585938 89.234375 306.332031 90.363281 C 306.964844 90.574219 307.671875 90.644531 308.304688 90.644531 C 311.339844 90.644531 314.160156 88.671875 315.074219 85.566406 C 316.203125 81.902344 314.019531 77.953125 310.28125 76.824219 Z M 310.28125 76.824219 " fill-opacity="1" fill-rule="nonzero"/><path fill="#ffffff" d="M 328.546875 147.488281 C 324.667969 147.488281 321.492188 150.589844 321.492188 154.539062 C 321.492188 158.417969 324.667969 161.589844 328.546875 161.589844 C 332.425781 161.589844 335.597656 158.417969 335.597656 154.539062 C 335.597656 150.589844 332.425781 147.488281 328.546875 147.488281 Z M 328.546875 147.488281 " fill-opacity="1" fill-rule="nonzero"/><path fill="#ffffff" d="M 206.613281 77.457031 C 204.917969 75.835938 202.523438 75.132812 200.195312 75.554688 C 199.773438 75.625 199.347656 75.765625 198.925781 75.976562 C 198.5 76.117188 198.078125 76.328125 197.65625 76.613281 C 197.300781 76.824219 196.949219 77.175781 196.605469 77.457031 C 195.320312 78.796875 194.550781 80.632812 194.550781 82.464844 C 194.550781 84.296875 195.320312 86.132812 196.597656 87.472656 C 196.949219 87.753906 197.304688 88.035156 197.65625 88.316406 C 198.078125 88.601562 198.5 88.8125 198.925781 88.953125 C 199.347656 89.164062 199.769531 89.304688 200.195312 89.375 C 200.6875 89.445312 201.183594 89.515625 201.605469 89.515625 C 203.4375 89.515625 205.273438 88.742188 206.613281 87.472656 C 207.882812 86.132812 208.65625 84.296875 208.65625 82.464844 C 208.65625 80.628906 207.882812 78.796875 206.613281 77.457031 Z M 206.613281 77.457031 " fill-opacity="1" fill-rule="nonzero"/><path fill="#ffffff" d="M 51.460938 162.085938 C 48.78125 159.476562 44.058594 159.476562 41.445312 162.085938 C 40.171875 163.425781 39.402344 165.257812 39.402344 167.09375 C 39.402344 167.585938 39.472656 168.007812 39.542969 168.503906 C 39.621094 168.925781 39.753906 169.347656 39.972656 169.773438 C 40.105469 170.195312 40.320312 170.617188 40.601562 171.042969 C 40.8125 171.394531 41.164062 171.746094 41.445312 172.101562 C 42.789062 173.371094 44.621094 174.144531 46.453125 174.144531 C 48.289062 174.144531 50.121094 173.371094 51.460938 172.101562 C 51.742188 171.746094 52.027344 171.394531 52.308594 171.042969 C 52.589844 170.621094 52.792969 170.195312 52.941406 169.773438 C 53.152344 169.351562 53.296875 168.925781 53.367188 168.503906 C 53.4375 168.007812 53.507812 167.585938 53.507812 167.09375 C 53.507812 165.257812 52.730469 163.425781 51.460938 162.085938 Z M 51.460938 162.085938 " fill-opacity="1" fill-rule="nonzero"/><path fill="#ffffff" d="M 123.464844 279.929688 C 123.464844 280.390625 123.417969 280.851562 123.328125 281.304688 C 123.238281 281.757812 123.105469 282.199219 122.929688 282.628906 C 122.75 283.054688 122.535156 283.460938 122.277344 283.847656 C 122.019531 284.230469 121.726562 284.589844 121.398438 284.914062 C 121.070312 285.242188 120.714844 285.535156 120.332031 285.792969 C 119.945312 286.050781 119.539062 286.265625 119.113281 286.445312 C 118.683594 286.621094 118.242188 286.753906 117.789062 286.847656 C 117.335938 286.9375 116.875 286.980469 116.414062 286.980469 C 115.949219 286.980469 115.492188 286.9375 115.035156 286.847656 C 114.582031 286.753906 114.140625 286.621094 113.714844 286.445312 C 113.285156 286.265625 112.878906 286.050781 112.496094 285.792969 C 112.109375 285.535156 111.753906 285.242188 111.425781 284.914062 C 111.097656 284.589844 110.804688 284.230469 110.550781 283.847656 C 110.292969 283.460938 110.074219 283.054688 109.898438 282.628906 C 109.71875 282.199219 109.585938 281.757812 109.496094 281.304688 C 109.40625 280.851562 109.359375 280.390625 109.359375 279.929688 C 109.359375 279.464844 109.40625 279.007812 109.496094 278.554688 C 109.585938 278.097656 109.71875 277.660156 109.898438 277.230469 C 110.074219 276.804688 110.292969 276.398438 110.550781 276.011719 C 110.804688 275.625 111.097656 275.269531 111.425781 274.941406 C 111.753906 274.617188 112.109375 274.324219 112.496094 274.066406 C 112.878906 273.808594 113.285156 273.589844 113.714844 273.414062 C 114.140625 273.238281 114.582031 273.101562 115.035156 273.011719 C 115.492188 272.921875 115.949219 272.878906 116.414062 272.878906 C 116.875 272.878906 117.335938 272.921875 117.789062 273.011719 C 118.242188 273.101562 118.683594 273.238281 119.113281 273.414062 C 119.539062 273.589844 119.945312 273.808594 120.332031 274.066406 C 120.714844 274.324219 121.070312 274.617188 121.398438 274.941406 C 121.726562 275.269531 122.019531 275.625 122.277344 276.011719 C 122.535156 276.398438 122.75 276.804688 122.929688 277.230469 C 123.105469 277.660156 123.238281 278.097656 123.328125 278.554688 C 123.417969 279.007812 123.464844 279.464844 123.464844 279.929688 Z M 123.464844 279.929688 " fill-opacity="1" fill-rule="nonzero"/><path fill="#ffffff" d="M 144.832031 272.875 C 140.949219 272.875 137.78125 276.050781 137.78125 279.929688 C 137.78125 283.808594 140.949219 286.980469 144.832031 286.980469 C 148.78125 286.980469 151.886719 283.808594 151.886719 279.929688 C 151.886719 276.050781 148.78125 272.875 144.832031 272.875 Z M 144.832031 272.875 " fill-opacity="1" fill-rule="nonzero"/><path fill="#ffffff" d="M 46.453125 188.460938 C 42.574219 188.460938 39.402344 191.632812 39.402344 195.511719 C 39.402344 199.460938 42.574219 202.566406 46.453125 202.566406 C 50.332031 202.566406 53.507812 199.460938 53.507812 195.511719 C 53.507812 191.632812 50.332031 188.460938 46.453125 188.460938 Z M 46.453125 188.460938 " fill-opacity="1" fill-rule="nonzero"/><path fill="#ffffff" d="M 87.992188 272.875 C 84.042969 272.875 80.871094 276.050781 80.871094 279.929688 C 80.871094 283.808594 84.042969 286.980469 87.992188 286.980469 C 91.871094 286.980469 94.972656 283.808594 94.972656 279.929688 C 94.972656 276.050781 91.871094 272.875 87.992188 272.875 Z M 87.992188 272.875 " fill-opacity="1" fill-rule="nonzero"/><path fill="#ffffff" d="M 46.3125 245.375 C 42.363281 245.515625 39.332031 248.757812 39.402344 252.636719 C 39.472656 256.445312 42.644531 259.476562 46.453125 259.476562 C 46.523438 259.476562 46.59375 259.476562 46.664062 259.476562 C 50.542969 259.40625 53.578125 256.164062 53.507812 252.285156 C 53.367188 248.40625 50.191406 245.300781 46.3125 245.375 Z M 46.3125 245.375 " fill-opacity="1" fill-rule="nonzero"/><path fill="#ffffff" d="M 53.507812 224.003906 C 53.507812 224.46875 53.460938 224.925781 53.371094 225.378906 C 53.28125 225.835938 53.148438 226.273438 52.96875 226.703125 C 52.792969 227.132812 52.574219 227.539062 52.316406 227.921875 C 52.0625 228.308594 51.769531 228.664062 51.441406 228.992188 C 51.113281 229.320312 50.757812 229.609375 50.371094 229.867188 C 49.988281 230.125 49.582031 230.34375 49.152344 230.519531 C 48.726562 230.695312 48.285156 230.832031 47.832031 230.921875 C 47.375 231.011719 46.917969 231.054688 46.453125 231.054688 C 45.992188 231.054688 45.53125 231.011719 45.078125 230.921875 C 44.625 230.832031 44.183594 230.695312 43.753906 230.519531 C 43.328125 230.34375 42.921875 230.125 42.535156 229.867188 C 42.152344 229.609375 41.796875 229.320312 41.46875 228.992188 C 41.140625 228.664062 40.847656 228.308594 40.589844 227.921875 C 40.332031 227.539062 40.117188 227.132812 39.9375 226.703125 C 39.761719 226.273438 39.628906 225.835938 39.539062 225.378906 C 39.449219 224.925781 39.402344 224.46875 39.402344 224.003906 C 39.402344 223.542969 39.449219 223.082031 39.539062 222.628906 C 39.628906 222.175781 39.761719 221.734375 39.9375 221.304688 C 40.117188 220.878906 40.332031 220.472656 40.589844 220.085938 C 40.847656 219.703125 41.140625 219.34375 41.46875 219.019531 C 41.796875 218.691406 42.152344 218.398438 42.535156 218.140625 C 42.921875 217.882812 43.328125 217.667969 43.753906 217.488281 C 44.183594 217.3125 44.625 217.179688 45.078125 217.085938 C 45.53125 216.996094 45.992188 216.953125 46.453125 216.953125 C 46.917969 216.953125 47.375 216.996094 47.832031 217.085938 C 48.285156 217.179688 48.726562 217.3125 49.152344 217.488281 C 49.582031 217.667969 49.988281 217.882812 50.371094 218.140625 C 50.757812 218.398438 51.113281 218.691406 51.441406 219.019531 C 51.769531 219.34375 52.0625 219.703125 52.316406 220.085938 C 52.574219 220.472656 52.792969 220.878906 52.96875 221.304688 C 53.148438 221.734375 53.28125 222.175781 53.371094 222.628906 C 53.460938 223.082031 53.507812 223.542969 53.507812 224.003906 Z M 53.507812 224.003906 " fill-opacity="1" fill-rule="nonzero"/><path fill="#ffffff" d="M 63.875 269.914062 C 60.496094 267.871094 56.1875 268.996094 54.140625 272.382812 C 52.167969 275.699219 53.296875 280 56.609375 282.046875 C 57.738281 282.679688 59.015625 283.03125 60.214844 283.03125 C 62.613281 283.03125 64.9375 281.761719 66.273438 279.578125 C 68.246094 276.261719 67.1875 271.890625 63.875 269.914062 Z M 63.875 269.914062 " fill-opacity="1" fill-rule="nonzero"/><path fill="#ffffff" d="M 178.402344 274.921875 C 177.691406 274.289062 176.992188 273.792969 176.074219 273.441406 C 174.382812 272.664062 172.402344 272.664062 170.714844 273.441406 C 169.796875 273.792969 169.09375 274.285156 168.386719 274.921875 C 167.113281 276.261719 166.34375 278.09375 166.34375 279.929688 C 166.34375 281.761719 167.109375 283.597656 168.386719 284.9375 C 169.09375 285.570312 169.796875 286.066406 170.714844 286.417969 C 171.5625 286.769531 172.476562 286.980469 173.394531 286.980469 C 175.230469 286.980469 177.0625 286.207031 178.402344 284.9375 C 179.671875 283.597656 180.449219 281.761719 180.449219 279.929688 C 180.449219 278.09375 179.671875 276.261719 178.402344 274.921875 Z M 178.402344 274.921875 " fill-opacity="1" fill-rule="nonzero"/><g clip-path="url(#c69f9d4da6)"><path fill="#ffffff" d="M 159.292969 33.097656 L 60.558594 33.097656 C 48.894531 33.097656 39.402344 42.589844 39.402344 54.257812 L 39.402344 124.777344 C 39.402344 136.445312 48.894531 145.9375 60.558594 145.9375 L 102.871094 145.9375 L 102.871094 160.039062 L 88.769531 160.039062 C 84.867188 160.039062 81.714844 163.199219 81.714844 167.09375 C 81.714844 170.984375 84.867188 174.144531 88.769531 174.144531 L 131.082031 174.144531 C 134.980469 174.144531 138.132812 170.984375 138.132812 167.09375 C 138.132812 163.199219 134.980469 160.039062 131.082031 160.039062 L 116.976562 160.039062 L 116.976562 138.882812 C 116.976562 134.992188 113.824219 131.832031 109.925781 131.832031 L 60.558594 131.832031 C 56.664062 131.832031 53.507812 128.664062 53.507812 124.78125 L 53.507812 117.726562 L 166.34375 117.726562 L 166.34375 124.78125 C 166.34375 128.664062 163.183594 131.832031 159.292969 131.832031 L 138.132812 131.832031 C 134.234375 131.832031 131.082031 134.992188 131.082031 138.882812 C 131.082031 142.777344 134.234375 145.9375 138.132812 145.9375 L 159.292969 145.9375 C 170.957031 145.9375 180.449219 136.441406 180.449219 124.777344 L 180.449219 54.257812 C 180.449219 42.589844 170.957031 33.097656 159.292969 33.097656 Z M 166.34375 103.621094 L 53.507812 103.621094 L 53.507812 54.257812 C 53.507812 50.371094 56.664062 47.203125 60.558594 47.203125 L 159.289062 47.203125 C 163.183594 47.203125 166.34375 50.371094 166.34375 54.257812 Z M 166.34375 103.621094 " fill-opacity="1" fill-rule="nonzero"/></g><g clip-path="url(#75ef4206e7)"><path fill="#ffffff" d="M 314.441406 202.355469 L 215.710938 202.355469 C 204.042969 202.355469 194.550781 211.847656 194.550781 223.511719 L 194.550781 294.035156 C 194.550781 305.699219 204.042969 315.191406 215.710938 315.191406 L 258.023438 315.191406 L 258.023438 329.296875 L 243.917969 329.296875 C 240.019531 329.296875 236.867188 332.457031 236.867188 336.347656 C 236.867188 340.242188 240.019531 343.398438 243.917969 343.398438 L 286.230469 343.398438 C 290.132812 343.398438 293.285156 340.242188 293.285156 336.347656 C 293.285156 332.457031 290.132812 329.296875 286.230469 329.296875 L 272.125 329.296875 L 272.125 308.140625 C 272.125 304.246094 268.976562 301.085938 265.074219 301.085938 L 215.707031 301.085938 C 211.816406 301.085938 208.65625 297.921875 208.65625 294.035156 L 208.65625 286.984375 L 321.492188 286.984375 L 321.492188 294.035156 C 321.492188 297.921875 318.332031 301.085938 314.441406 301.085938 L 293.285156 301.085938 C 289.382812 301.085938 286.230469 304.246094 286.230469 308.140625 C 286.230469 312.03125 289.382812 315.191406 293.285156 315.191406 L 314.441406 315.191406 C 326.105469 315.191406 335.597656 305.699219 335.597656 294.035156 L 335.597656 223.511719 C 335.597656 211.847656 326.105469 202.355469 314.441406 202.355469 Z M 321.492188 272.875 L 208.65625 272.875 L 208.65625 223.511719 C 208.65625 219.625 211.816406 216.457031 215.710938 216.457031 L 314.441406 216.457031 C 318.332031 216.457031 321.492188 219.625 321.492188 223.511719 Z M 321.492188 272.875 " fill-opacity="1" fill-rule="nonzero"/></g></svg>